<svg xmlns="http://www.w3.org/2000/svg" xmlns:xlink="http://www.w3.org/1999/xlink" width="25" height="25" viewBox="0 0 25 25"><defs><radialGradient id="a" cx="0.715" cy="0.772" r="0.595" gradientTransform="matrix(0.997, 0.083, -0.083, 0.997, 0.067, -0.057)" gradientUnits="objectBoundingBox"><stop offset="0" stop-color="#68c2fe"/><stop offset="0.41" stop-color="#5a9bc7"/><stop offset="0.745" stop-color="#427da5"/><stop offset="1" stop-color="#34617f"/></radialGradient></defs><path d="M46.193,61.876a12.342,12.342,0,0,1-5.587-1.329,12.653,12.653,0,0,1-4.291-3.561L55.46,40.744a12.744,12.744,0,0,1-.425,17.429,12.456,12.456,0,0,1-3.975,2.709A12.308,12.308,0,0,1,46.193,61.876Zm-10.079-5.16h0a12.738,12.738,0,0,1-.724-1.114l18.883-16.02a12.678,12.678,0,0,1,.961.915Zm-.972-1.565h0c-.161-.306-.311-.623-.446-.942l18.341-15.56c.291.193.573.4.84.608Zm-.7-1.6h0c-.093-.259-.179-.525-.254-.789L51.712,37.885c.249.124.493.256.725.392ZM34,52.032h0c-.062-.278-.116-.562-.159-.843l16.408-13.92c.27.094.537.2.794.306Zm-.256-1.643h0c-.02-.218-.034-.44-.042-.66L48.85,36.876c.216.047.43.1.637.157Z" transform="translate(-33.698 -36.876)" fill="url(#a)"/></svg>